<mxfile host="app.diagrams.net" modified="2024-03-29T21:06:03.770Z" agent="Mozilla/5.0 (Macintosh; Intel Mac OS X 10_15_7) AppleWebKit/537.36 (KHTML, like Gecko) Chrome/123.0.0.0 Safari/537.36" etag="VHig-iP5nO1A-TFraotF" version="24.2.1" type="device">
  <diagram name="Page-1" id="s0THY4sBElGK5vQmdqKM">
    <mxGraphModel dx="788" dy="662" grid="1" gridSize="10" guides="1" tooltips="1" connect="1" arrows="1" fold="1" page="1" pageScale="1" pageWidth="827" pageHeight="1169" math="0" shadow="0">
      <root>
        <mxCell id="0" />
        <mxCell id="1" parent="0" />
        <mxCell id="330m9o8dvJ60RVRWKiUh-3" value="Daedalus" style="swimlane;whiteSpace=wrap;html=1;" vertex="1" parent="1">
          <mxGeometry x="190" y="110" width="550" height="410" as="geometry" />
        </mxCell>
        <mxCell id="330m9o8dvJ60RVRWKiUh-28" value="" style="edgeStyle=orthogonalEdgeStyle;rounded=0;orthogonalLoop=1;jettySize=auto;html=1;entryX=0;entryY=0.5;entryDx=0;entryDy=0;startArrow=classicThin;startFill=1;" edge="1" parent="330m9o8dvJ60RVRWKiUh-3" source="330m9o8dvJ60RVRWKiUh-4" target="330m9o8dvJ60RVRWKiUh-23">
          <mxGeometry relative="1" as="geometry" />
        </mxCell>
        <mxCell id="330m9o8dvJ60RVRWKiUh-4" value="Conveyor" style="swimlane;whiteSpace=wrap;html=1;" vertex="1" parent="330m9o8dvJ60RVRWKiUh-3">
          <mxGeometry x="45" y="40" width="200" height="350" as="geometry" />
        </mxCell>
        <mxCell id="330m9o8dvJ60RVRWKiUh-5" value="Step 1" style="swimlane;fontStyle=0;childLayout=stackLayout;horizontal=1;startSize=30;horizontalStack=0;resizeParent=1;resizeParentMax=0;resizeLast=0;collapsible=1;marginBottom=0;whiteSpace=wrap;html=1;" vertex="1" parent="330m9o8dvJ60RVRWKiUh-4">
          <mxGeometry x="30" y="40" width="140" height="120" as="geometry" />
        </mxCell>
        <mxCell id="330m9o8dvJ60RVRWKiUh-6" value="Step 1" style="text;strokeColor=none;fillColor=none;align=left;verticalAlign=middle;spacingLeft=4;spacingRight=4;overflow=hidden;points=[[0,0.5],[1,0.5]];portConstraint=eastwest;rotatable=0;whiteSpace=wrap;html=1;" vertex="1" parent="330m9o8dvJ60RVRWKiUh-5">
          <mxGeometry y="30" width="140" height="30" as="geometry" />
        </mxCell>
        <mxCell id="330m9o8dvJ60RVRWKiUh-7" value="..." style="text;strokeColor=none;fillColor=none;align=left;verticalAlign=middle;spacingLeft=4;spacingRight=4;overflow=hidden;points=[[0,0.5],[1,0.5]];portConstraint=eastwest;rotatable=0;whiteSpace=wrap;html=1;" vertex="1" parent="330m9o8dvJ60RVRWKiUh-5">
          <mxGeometry y="60" width="140" height="30" as="geometry" />
        </mxCell>
        <mxCell id="330m9o8dvJ60RVRWKiUh-8" value="Step N" style="text;strokeColor=none;fillColor=none;align=left;verticalAlign=middle;spacingLeft=4;spacingRight=4;overflow=hidden;points=[[0,0.5],[1,0.5]];portConstraint=eastwest;rotatable=0;whiteSpace=wrap;html=1;" vertex="1" parent="330m9o8dvJ60RVRWKiUh-5">
          <mxGeometry y="90" width="140" height="30" as="geometry" />
        </mxCell>
        <mxCell id="330m9o8dvJ60RVRWKiUh-9" value="Step N" style="swimlane;fontStyle=0;childLayout=stackLayout;horizontal=1;startSize=30;horizontalStack=0;resizeParent=1;resizeParentMax=0;resizeLast=0;collapsible=1;marginBottom=0;whiteSpace=wrap;html=1;" vertex="1" parent="330m9o8dvJ60RVRWKiUh-4">
          <mxGeometry x="30" y="210" width="140" height="120" as="geometry" />
        </mxCell>
        <mxCell id="330m9o8dvJ60RVRWKiUh-10" value="Step 1" style="text;strokeColor=none;fillColor=none;align=left;verticalAlign=middle;spacingLeft=4;spacingRight=4;overflow=hidden;points=[[0,0.5],[1,0.5]];portConstraint=eastwest;rotatable=0;whiteSpace=wrap;html=1;" vertex="1" parent="330m9o8dvJ60RVRWKiUh-9">
          <mxGeometry y="30" width="140" height="30" as="geometry" />
        </mxCell>
        <mxCell id="330m9o8dvJ60RVRWKiUh-11" value="...." style="text;strokeColor=none;fillColor=none;align=left;verticalAlign=middle;spacingLeft=4;spacingRight=4;overflow=hidden;points=[[0,0.5],[1,0.5]];portConstraint=eastwest;rotatable=0;whiteSpace=wrap;html=1;" vertex="1" parent="330m9o8dvJ60RVRWKiUh-9">
          <mxGeometry y="60" width="140" height="30" as="geometry" />
        </mxCell>
        <mxCell id="330m9o8dvJ60RVRWKiUh-12" value="Step N" style="text;strokeColor=none;fillColor=none;align=left;verticalAlign=middle;spacingLeft=4;spacingRight=4;overflow=hidden;points=[[0,0.5],[1,0.5]];portConstraint=eastwest;rotatable=0;whiteSpace=wrap;html=1;" vertex="1" parent="330m9o8dvJ60RVRWKiUh-9">
          <mxGeometry y="90" width="140" height="30" as="geometry" />
        </mxCell>
        <mxCell id="330m9o8dvJ60RVRWKiUh-16" value="&lt;font style=&quot;font-size: 27px;&quot;&gt;...&lt;/font&gt;" style="text;html=1;align=center;verticalAlign=middle;whiteSpace=wrap;rounded=0;" vertex="1" parent="330m9o8dvJ60RVRWKiUh-4">
          <mxGeometry x="70" y="165" width="60" height="30" as="geometry" />
        </mxCell>
        <mxCell id="330m9o8dvJ60RVRWKiUh-23" value="Resolver" style="swimlane;whiteSpace=wrap;html=1;" vertex="1" parent="330m9o8dvJ60RVRWKiUh-3">
          <mxGeometry x="310" y="120" width="200" height="190" as="geometry" />
        </mxCell>
        <mxCell id="330m9o8dvJ60RVRWKiUh-19" value="Database" style="swimlane;fontStyle=0;childLayout=stackLayout;horizontal=1;startSize=30;horizontalStack=0;resizeParent=1;resizeParentMax=0;resizeLast=0;collapsible=1;marginBottom=0;whiteSpace=wrap;html=1;" vertex="1" parent="330m9o8dvJ60RVRWKiUh-23">
          <mxGeometry x="30" y="40" width="140" height="120" as="geometry" />
        </mxCell>
        <mxCell id="330m9o8dvJ60RVRWKiUh-20" value="Data 1" style="text;strokeColor=none;fillColor=none;align=left;verticalAlign=middle;spacingLeft=4;spacingRight=4;overflow=hidden;points=[[0,0.5],[1,0.5]];portConstraint=eastwest;rotatable=0;whiteSpace=wrap;html=1;" vertex="1" parent="330m9o8dvJ60RVRWKiUh-19">
          <mxGeometry y="30" width="140" height="30" as="geometry" />
        </mxCell>
        <mxCell id="330m9o8dvJ60RVRWKiUh-21" value="..." style="text;strokeColor=none;fillColor=none;align=left;verticalAlign=middle;spacingLeft=4;spacingRight=4;overflow=hidden;points=[[0,0.5],[1,0.5]];portConstraint=eastwest;rotatable=0;whiteSpace=wrap;html=1;" vertex="1" parent="330m9o8dvJ60RVRWKiUh-19">
          <mxGeometry y="60" width="140" height="30" as="geometry" />
        </mxCell>
        <mxCell id="330m9o8dvJ60RVRWKiUh-22" value="Data N" style="text;strokeColor=none;fillColor=none;align=left;verticalAlign=middle;spacingLeft=4;spacingRight=4;overflow=hidden;points=[[0,0.5],[1,0.5]];portConstraint=eastwest;rotatable=0;whiteSpace=wrap;html=1;" vertex="1" parent="330m9o8dvJ60RVRWKiUh-19">
          <mxGeometry y="90" width="140" height="30" as="geometry" />
        </mxCell>
      </root>
    </mxGraphModel>
  </diagram>
</mxfile>
